{
  "asset": {
    "generator": "Babylon.js v9.0.0",
    "version": "2.0"
  },
  "buffers": [
    {
      "uri": "KuriManju_data.bin",
      "byteLength": 532272
    }
  ],
  "nodes": [
    {
      "name": "manju",
      "mesh": 0
    }
  ],
  "meshes": [
    {
      "primitives": [
        {
          "attributes": {
            "POSITION": 1,
            "NORMAL": 2,
            "COLOR_0": 3
          },
          "material": 0,
          "mode": 4,
          "indices": 0
        }
      ]
    }
  ],
  "scenes": [
    {
      "nodes": [
        0
      ]
    }
  ],
  "scene": 0,
  "bufferViews": [
    {
      "buffer": 0,
      "byteOffset": 0,
      "byteLength": 106932,
      "byteStride": 12
    },
    {
      "buffer": 0,
      "byteOffset": 106932,
      "byteLength": 106932,
      "byteStride": 12
    },
    {
      "buffer": 0,
      "byteOffset": 213864,
      "byteLength": 71288,
      "byteStride": 8
    },
    {
      "buffer": 0,
      "byteOffset": 285152,
      "byteLength": 142576,
      "byteStride": 16
    },
    {
      "buffer": 0,
      "byteOffset": 427728,
      "byteLength": 104544
    }
  ],
  "accessors": [
    {
      "bufferView": 4,
      "componentType": 5123,
      "count": 52272,
      "type": "SCALAR",
      "byteOffset": 0
    },
    {
      "bufferView": 0,
      "componentType": 5126,
      "count": 8911,
      "type": "VEC3",
      "min": [
        -1.600000023841858,
        -0.6150000095367432,
        -1.2000000476837158
      ],
      "max": [
        1.600000023841858,
        0.9300000071525574,
        1.2000000476837158
      ],
      "normalized": false,
      "byteOffset": 0
    },
    {
      "bufferView": 1,
      "componentType": 5126,
      "count": 8911,
      "type": "VEC3",
      "normalized": false,
      "byteOffset": 0
    },
    {
      "bufferView": 3,
      "componentType": 5126,
      "count": 8911,
      "type": "VEC3",
      "normalized": false,
      "byteOffset": 0
    }
  ],
  "materials": [
    {
      "name": "manjuMat",
      "pbrMetallicRoughness": {
        "baseColorFactor": [
          0.5,
          0.5,
          0.5,
          1
        ],
        "metallicFactor": 0,
        "roughnessFactor": 0.45838731778152497
      }
    }
  ]
}